HIERARCHY
ROOT Hips
{
	OFFSET	0.00	0.00	0.00
	CHANNELS 6 Xposition Yposition Zposition Zrotation Xrotation Yrotation
	JOINT LeftUpLeg
	{
		OFFSET	 0.126116	-0.014019	-0.065224
		CHANNELS 3 Zrotation Xrotation Yrotation
		JOINT LeftLeg
		{
			OFFSET	 0.000000	 0.000000	 0.569914
			CHANNELS 3 Zrotation Xrotation Yrotation
			JOINT LeftFoot
			{
				OFFSET	 0.000000	 0.000000	 0.544423
				CHANNELS 3 Zrotation Xrotation Yrotation
				JOINT LeftToeBase
				{
					OFFSET	 0.000000	 0.000000	 0.207117
					CHANNELS 3 Zrotation Xrotation Yrotation
					End Site
					{
						OFFSET	 0.000000	 0.000000	 0.207117
					}
				}
			}
		}
	}
	JOINT RightUpLeg
	{
		OFFSET	-0.124023	-0.008373	-0.065224
		CHANNELS 3 Zrotation Xrotation Yrotation
		JOINT RightLeg
		{
			OFFSET	 0.000000	 0.000000	 0.570047
			CHANNELS 3 Zrotation Xrotation Yrotation
			JOINT RightFoot
			{
				OFFSET	 0.000000	 0.000000	 0.544354
				CHANNELS 3 Zrotation Xrotation Yrotation
				JOINT RightToeBase
				{
					OFFSET	 0.000000	 0.000000	 0.207540
					CHANNELS 3 Zrotation Xrotation Yrotation
					End Site
					{
						OFFSET	 0.000000	 0.000000	 0.207540
					}
				}
			}
		}
	}
	JOINT Spine
	{
		OFFSET	 0.000184	-0.007763	 0.117403
		CHANNELS 3 Zrotation Xrotation Yrotation
		JOINT Spine1
		{
			OFFSET	 0.000000	 0.000000	 0.137269
			CHANNELS 3 Zrotation Xrotation Yrotation
			JOINT Spine2
			{
				OFFSET	 0.000000	 0.000000	 0.156879
				CHANNELS 3 Zrotation Xrotation Yrotation
				JOINT LeftShoulder
				{
					OFFSET	 0.080501	-0.002496	 0.160144
					CHANNELS 3 Zrotation Xrotation Yrotation
					JOINT LeftArm
					{
						OFFSET	 0.000000	 0.000000	 0.164363
						CHANNELS 3 Zrotation Xrotation Yrotation
						JOINT LeftForeArm
						{
							OFFSET	 0.000000	 0.000000	 0.364576
							CHANNELS 3 Zrotation Xrotation Yrotation
							JOINT LeftHand
							{
								OFFSET	 0.000000	 0.000000	 0.360812
								CHANNELS 3 Zrotation Xrotation Yrotation
								JOINT LeftHandIndex1
								{
									OFFSET	 0.000000	 0.000000	 0.086006
									CHANNELS 3 Zrotation Xrotation Yrotation
									JOINT LeftHandIndex2
									{
										OFFSET	 0.000000	 0.000000	 0.047236
										CHANNELS 3 Zrotation Xrotation Yrotation
										JOINT LeftHandIndex3
										{
											OFFSET	-0.004284	-0.000551	 0.038166
											CHANNELS 3 Zrotation Xrotation Yrotation
											End Site
											{
												OFFSET	-0.004284	-0.000551	 0.038166
											}
										}
									}
								}
							}
						}
					}
				}
				JOINT Neck
				{
					OFFSET	 0.000000	 0.000000	 0.176489
					CHANNELS 3 Zrotation Xrotation Yrotation
					JOINT Head
					{
						OFFSET	 0.000000	-0.001747	 0.077940
						CHANNELS 3 Zrotation Xrotation Yrotation
						End Site
						{
							OFFSET	 0.000000	-0.001747	 0.077940
						}
					}
				}
				JOINT RightShoulder
				{
					OFFSET	-0.080363	 0.000306	 0.159706
					CHANNELS 3 Zrotation Xrotation Yrotation
					JOINT RightArm
					{
						OFFSET	 0.000000	 0.000000	 0.164196
						CHANNELS 3 Zrotation Xrotation Yrotation
						JOINT RightForeArm
						{
							OFFSET	 0.000000	 0.000000	 0.365611
							CHANNELS 3 Zrotation Xrotation Yrotation
							JOINT RightHand
							{
								OFFSET	 0.000000	 0.000000	 0.360648
								CHANNELS 3 Zrotation Xrotation Yrotation
								JOINT RightHandIndex1
								{
									OFFSET	 0.000000	 0.000000	 0.069977
									CHANNELS 3 Zrotation Xrotation Yrotation
									JOINT RightHandIndex2
									{
										OFFSET	 0.000000	 0.000000	 0.052305
										CHANNELS 3 Zrotation Xrotation Yrotation
										JOINT RightHandIndex3
										{
											OFFSET	 0.009002	-0.000782	 0.042196
											CHANNELS 3 Zrotation Xrotation Yrotation
											End Site
											{
												OFFSET	 0.009002	-0.000782	 0.042196
											}
										}
									}
								}
							}
						}
					}
				}
			}
		}
	}
}
MOTION
Frames:    9
Frame Time: 0.03333334
-0.056630	-2.233777	 1.155829	 4.134612	-1.788855	-3.511787	 16.063520	-16.567250	-173.590500	 0.329772	-51.376970	-0.013533	 106.727500	 82.277320	-110.823300	-2.371301	 31.293980	-0.062676	-17.330540	-34.699690	-174.522800	 13.653120	-62.609970	 12.827040	 11.413280	 76.035820	-5.455551	 2.357889	 33.159310	 0.106919	-1.867087	 8.938631	 1.187153	 1.009994	 3.064436	 2.342887	-6.447262	-2.737367	-3.041856	-93.772710	 58.868910	 175.752800	 14.460300	 33.346700	-37.909980	-17.519410	 2.282457	-7.501453	 0.061893	-4.538005	-5.965109	-4.869452	 19.240320	-2.786450	-3.890599	 21.356520	 2.211973	-4.808246	 5.545705	 0.146956	-0.124907	-5.016613	 0.159161	-8.547170	 1.978896	 2.399163	 89.830990	 61.583420	-179.883700	-19.279620	 49.595860	 12.095460	 15.338820	 2.977334	 14.264830	-4.310928	 9.451445	 0.669861	 6.304204	 25.965060	-0.576249	 1.732217	 45.910100	-6.856016	 0.352512	 25.033210	 3.657275
-0.058053	-2.267326	 1.155591	 5.222470	-1.222537	-3.491272	 14.752470	-15.362620	-174.102200	 1.196859	-50.838810	 0.654546	 113.087200	 82.369540	-117.595100	-2.369386	 31.617340	-0.069981	-20.292190	-37.502790	-175.968700	 13.683080	-59.012490	 12.449280	 16.550760	 81.779080	-11.420560	 2.358915	 33.008060	 0.103411	-2.004939	 8.643696	 1.048517	 0.933187	 2.827789	 2.423894	-6.615843	-2.812419	-3.032959	-93.979760	 59.016650	 175.293200	 13.726560	 31.269050	-38.744100	-18.509020	 2.261488	-7.456031	 0.737392	-4.778841	-7.673078	-4.868300	 19.268760	-2.788029	-3.881942	 21.467550	 2.203171	-4.807732	 5.551764	 0.146603	-0.065114	-5.085879	 0.193837	-8.505473	 1.928092	 2.152157	 89.764430	 61.667440	 179.957800	-18.958730	 50.639690	 10.231380	 14.853300	 2.905416	 14.402680	-4.358088	 10.132530	 0.413807	 6.290172	 24.538870	-0.537789	 1.928116	 44.353870	-7.031066	 0.596486	 23.967330	 3.532839
-0.059411	-2.302099	 1.153804	 6.091237	-0.406155	-3.563705	 13.676040	-14.355750	-174.494000	 1.608703	-50.384390	 0.967598	 120.666800	 82.431950	-125.268000	-2.367788	 31.879910	-0.075945	-23.269650	-40.374580	-177.832300	 13.822110	-54.620310	 11.973600	 33.633710	 86.205070	-29.717320	 2.359215	 32.964530	 0.102403	-1.778823	 8.083971	 0.899416	 0.860947	 2.731974	 2.636282	-6.785336	-2.952503	-3.110013	-94.202740	 59.015990	 174.817500	 12.587880	 29.104030	-39.424630	-18.716580	 2.229168	-7.403127	 1.448853	-5.223102	-8.373396	-4.860619	 19.473480	-2.803257	-3.868674	 21.636910	 2.189693	-4.801815	 5.621458	 0.142519	-0.020874	-5.121447	 0.259335	-8.517334	 1.890533	 2.018060	 89.675930	 61.774680	 179.745700	-18.589910	 51.679600	 8.004066	 13.961290	 2.843104	 15.365860	-4.667689	 10.751550	 0.045805	 6.266670	 22.893190	-0.563188	 2.112884	 42.794120	-7.194699	 0.938146	 22.440160	 3.364912
-0.060490	-2.340693	 1.150374	 6.509827	 0.369390	-3.946025	 13.110330	-12.871290	-174.677900	 1.870229	-49.723920	 1.157884	 131.861500	 82.087910	-136.475600	-2.365021	 32.322530	-0.086044	-24.545830	-43.018400	-179.307700	 13.612810	-49.507990	 11.025830	 52.292810	 86.762390	-49.807380	 2.361256	 32.657470	 0.095290	-1.125821	 7.418689	 1.077478	 0.835640	 3.037233	 2.778852	-6.908989	-3.184602	-3.187358	-94.392780	 58.935870	 174.424700	 11.166570	 26.883810	-40.241290	-19.414820	 2.192881	-7.337678	 1.362540	-5.937036	-7.799485	-4.843836	 19.861190	-2.820753	-3.847961	 21.899810	 2.168655	-4.788711	 5.775718	 0.133463	-0.002322	-5.194004	 0.321747	-8.568436	 1.845883	 1.986090	 89.540360	 61.940690	 179.417500	-17.974790	 52.707920	 5.697858	 12.494610	 2.655835	 16.475650	-5.155760	 11.472500	-0.975571	 6.232595	 20.934040	-0.631347	 2.285264	 41.252320	-7.345951	 1.367345	 20.465240	 3.164882
-0.062183	-2.382555	 1.145655	 6.638394	 0.732231	-4.281512	 12.648770	-10.680770	-175.103500	 1.989879	-48.861090	 1.233112	 140.429700	 81.998520	-144.886800	-2.357948	 33.382510	-0.110560	-23.618490	-44.848970	-179.917400	 12.438430	-44.598440	 9.349123	 136.064500	 84.111880	-134.610900	 2.351579	 34.043220	 0.127683	-0.431115	 6.906975	 1.308308	 0.819013	 3.765193	 2.762007	-6.948994	-3.493493	-3.185127	-94.488870	 58.860520	 174.232400	 9.462028	 25.099250	-41.047950	-19.874870	 2.148720	-7.262252	 0.955440	-6.072913	-7.272899	-4.823539	 20.260620	-2.822922	-3.820859	 22.241200	 2.141122	-4.767983	 6.018890	 0.119109	 0.026078	-5.287842	 0.345218	-8.557027	 1.773241	 1.907485	 89.435610	 62.041160	 179.161800	-16.988390	 53.534070	 3.564234	 10.865420	 2.345634	 16.813680	-5.414888	 11.893320	-2.451789	 6.191488	 18.825030	-0.718190	 2.560414	 38.602590	-7.584177	 1.819743	 18.317250	 2.967871
-0.065160	-2.429756	 1.138958	 6.935043	 0.753659	-4.549884	 11.895400	-7.775045	-175.827000	 2.253971	-47.744280	 1.407445	 146.012700	 82.427500	-150.343300	-2.338962	 35.849310	-0.169473	-23.158590	-46.910610	 179.420300	 12.676750	-40.708020	 8.855160	 129.592700	 83.618530	-129.333800	 2.335448	 36.061920	 0.176369	 0.008603	 7.011355	 1.459694	 0.764763	 3.963576	 2.878088	-6.954597	-3.754794	-3.252345	-94.544710	 58.898250	 174.107700	 7.675582	 23.918460	-41.691240	-19.668880	 2.089317	-7.171822	 0.652702	-6.985330	-7.586209	-4.842464	 20.490180	-3.000122	-3.791155	 22.611870	 2.110953	-4.736245	 6.389724	 0.097032	 0.100185	-5.389211	 0.355178	-8.455333	 1.797877	 1.626866	 89.360660	 61.978990	 178.982900	-15.615170	 54.083160	 1.136556	 9.364697	 2.020084	 16.363300	-5.288750	 11.692800	-3.866091	 6.164389	 16.520430	-0.699888	 2.847108	 35.569390	-7.827604	 2.294972	 15.990360	 2.777039
-0.070364	-2.478017	 1.129658	 7.193162	 0.672869	-4.320558	 10.917210	-4.894867	-177.140800	 2.858259	-46.870470	 1.829117	 145.679100	 84.421710	-149.850800	-2.290017	 40.692170	-0.294341	-22.784540	-49.905480	 178.186200	 12.215120	-39.515400	 8.339195	 59.157920	 85.891150	-58.260570	 2.338506	 35.702170	 0.167550	 0.377675	 7.009724	 1.303470	 0.778703	 4.437561	 2.780090	-6.959980	-3.989409	-3.265647	-94.522380	 59.185460	 174.107500	 6.082916	 23.256140	-42.481060	-19.444320	 2.020666	-7.064552	 0.079439	-8.204752	-8.253200	-4.875334	 20.593970	-3.222104	-3.766279	 22.919430	 2.085698	-4.692825	 6.893802	 0.066664	 0.174996	-5.477700	 0.283174	-8.279467	 1.873946	 1.450620	 89.356170	 61.681810	 178.983300	-14.427160	 54.295090	-1.780884	 7.965520	 1.695712	 17.283470	-5.224412	 11.192010	-5.015026	 6.184846	 14.224460	-0.456910	 3.008346	 33.729450	-7.962023	 2.740417	 13.747380	 2.613929
-0.077240	-2.530490	 1.119866	 7.475142	 0.284862	-3.469744	 10.266910	-1.527588	-179.375300	 2.192033	-45.665780	 1.315834	 106.349400	 88.332120	-109.032000	-2.158132	 49.004890	-0.550050	-20.717730	-51.962090	 177.614300	 8.157957	-39.768490	 5.730677	 0.315949	 78.631050	 5.695888	 2.340811	 35.424230	 0.160783	 0.695650	 7.041358	 0.488015	 0.776877	 5.220950	 2.830969	-6.996828	-4.189933	-3.446732	-94.454020	 59.370350	 174.223200	 4.978106	 22.610850	-43.249450	-19.400390	 1.945839	-6.943786	-0.439294	-8.543592	-8.380424	-4.893446	 20.715110	-3.366575	-3.753811	 23.072660	 2.073037	-4.635855	 7.549775	 0.026514	 0.259712	-5.475772	 0.241456	-8.091203	 2.015011	 1.686411	 89.353710	 61.422040	 178.986900	-13.484100	 54.296180	-3.986892	 6.685683	 1.354444	 17.737580	-5.497384	 10.632190	-5.682800	 6.271574	 11.992730	 0.034268	 3.131416	 32.255410	-8.063273	 3.123171	 11.775590	 2.486501
-0.083694	-2.589922	 1.112110	 8.478658	-0.511695	-2.636003	 10.136510	 2.935075	 177.886200	-0.242974	-42.960420	-0.405975	 0.034433	 81.601040	 0.935842	-1.959669	 56.455670	-0.853879	-17.048710	-51.628010	 178.893300	 7.582488	-39.713670	 5.351473	-11.402940	 67.643600	 21.782200	 2.334244	 36.199670	 0.179777	 0.556867	 7.333506	-0.319203	 0.503560	 5.899580	 2.739840	-7.113310	-4.271013	-3.594426	-94.395900	 59.077800	 174.395800	 4.460005	 21.587340	-43.690280	-19.433890	 1.864856	-6.809787	-0.575148	-7.552176	-8.026686	-4.896122	 20.909560	-3.447438	-3.735194	 23.300270	 2.054141	-4.574135	 8.253194	-0.017341	 0.363218	-5.416865	 0.284964	-7.963239	 2.300230	 2.001483	 89.223890	 61.413530	 178.680400	-12.739670	 54.227470	-4.588106	 6.070502	 1.214487	 16.363760	-5.849033	 10.069330	-5.096808	 6.337447	 10.001040	 0.358751	 3.298448	 30.152770	-8.198652	 3.417027	 10.236080	 2.396945
